<svg version="1.2" baseProfile="tiny-ps" xmlns="http://www.w3.org/2000/svg" viewBox="0 0 601 190" width="220" height="45">
	<title>v1 (1)-ai</title>
	<style>
		tspan { white-space:pre }
		.shp0 { fill: #3f51b5 } 
		.shp1 { fill: #ffffff } 
	</style>
	<g >
		<path class="shp0" d="M950 495L-330 495L-330 -305L950 -305L950 495Z" />
		<g >
		</g>
		<g >
			<g >
				<path fill-rule="evenodd" class="shp1" d="M54 140.61L54 49.39L88.16 49.39C95.22 49.39 100.86 50.31 105.07 52.17C109.29 54.02 112.57 56.89 114.91 60.77C117.24 64.31 118.41 68.28 118.41 72.69C118.41 76.66 117.55 79.91 115.83 82.42C114.95 83.97 113.82 84.74 112.46 84.74C111.66 84.74 110.67 84.39 109.48 83.68C107.49 82.22 106.5 79.77 106.5 76.33L106.5 75.4C106.5 74.88 106.54 74.46 106.63 74.15C106.63 71.1 105.9 68.42 104.45 66.1C102.99 63.79 100.91 62.23 98.22 61.44C95.62 60.64 90.96 60.24 84.25 60.24L66.12 60.24L66.12 87.72L85.91 87.72C88.51 87.72 91.22 87.93 94.02 88.35C96.82 88.77 99.66 89.42 102.53 90.3C108.44 92.02 113.29 95.09 117.09 99.5C120.97 103.96 122.92 108.81 122.92 114.07C122.92 118.39 122.01 122.38 120.2 126.05C118.39 129.71 116.16 132.58 113.52 134.65C110.91 136.64 107.62 138.13 103.65 139.12C99.68 140.12 94.71 140.61 88.76 140.61L54 140.61ZM66.12 129.89L88.76 129.89C90.83 129.89 92.54 129.85 93.89 129.76C95.23 129.67 96.28 129.54 97.03 129.36C100.91 128.65 104.11 127.1 106.63 124.69C109.15 122.29 110.4 118.74 110.4 114.07C110.4 110.71 109.54 107.77 107.82 105.23C106.1 102.69 103.67 100.94 100.54 99.97C97.27 98.95 92.79 98.44 87.1 98.44L66.12 98.44L66.12 129.89Z" />
				<path class="shp1" d="M152.56 140.61L152.43 129.89L209.69 129.89L209.69 140.61L152.56 140.61ZM164.68 120.02L152.56 120.02L152.56 49.39L164.68 49.39L164.68 120.02Z" />
				<path class="shp1" d="M253.04 102.22L272.04 102.22L275.02 112.94L250.33 112.94L240.26 140.61L227.55 140.61L262.51 49.39L275.42 49.39L312.82 140.61L299.12 140.61L268.8 58.85L253.83 103.21L253.04 102.22Z" />
				<path class="shp1" d="M335.98 140.61L335.98 49.39L367.62 49.39C374.64 49.39 380 49.78 383.71 50.58C388.96 51.95 393.44 54.15 397.15 57.2C406.72 65.36 411.51 77.81 411.51 94.54C411.51 99.88 411.04 104.69 410.09 108.97C409.14 113.25 407.88 117.02 406.32 120.29C404.75 123.56 402.94 126.36 400.89 128.7C398.84 131.04 396.68 132.98 394.43 134.52C388.47 138.58 379.98 140.61 368.95 140.61L367.62 129.89C373.76 129.89 378.49 129.33 381.82 128.2C385.15 127.07 387.88 125.47 390 123.4C392.87 120.58 395.1 116.75 396.68 111.91C398.27 107.08 399.07 101.25 399.07 94.4C399.07 84.7 397.53 77.31 394.47 72.26C391.4 67.21 387.55 63.78 382.91 61.97C381.37 61.44 379.28 60.96 376.66 60.54C374.03 60.12 370.93 59.91 367.36 59.91L347.1 59.91L347.1 140.61L335.98 140.61Z" />
				<path class="shp1" d="M443.67 49.39L455.85 49.39L455.85 140.61L443.67 140.61L443.67 49.39Z" />
				<path class="shp1" d="M506.22 102.22L525.22 102.22L528.2 112.94L503.51 112.94L493.44 140.61L480.73 140.61L515.69 49.39L528.6 49.39L566 140.61L552.3 140.61L521.98 58.85L507.01 103.21L506.22 102.22Z" />
			</g>
		</g>
	</g>
</svg>