<svg xmlns="http://www.w3.org/2000/svg" width="28" height="28" viewBox="0 0 28 28"><defs><style>.a{fill:rgba(255,255,255,0);}.b{fill:#e4e4e4;}</style></defs><rect class="a" width="28" height="28"/><path class="b" d="M4.193,17a.572.572,0,0,1-.42-.187l-3.6-3.923a.708.708,0,0,1,0-.929l3.6-3.923a.569.569,0,0,1,.42-.188.555.555,0,0,1,.235.052.657.657,0,0,1,.366.606V11.12h9a.629.629,0,0,1,.6.653v1.308a.629.629,0,0,1-.6.654h-9v2.615a.659.659,0,0,1-.372.6A.555.555,0,0,1,4.193,17Zm15.6-7.82a.555.555,0,0,1-.231-.05.655.655,0,0,1-.368-.62V5.888h-9a.629.629,0,0,1-.6-.653V3.927a.63.63,0,0,1,.6-.654h9V.658A.656.656,0,0,1,19.56.051.555.555,0,0,1,19.793,0a.572.572,0,0,1,.42.187l3.6,3.923a.712.712,0,0,1,.012.942l-3.6,3.924A.58.58,0,0,1,19.793,9.176Z" transform="translate(1.999 5.497)"/></svg>