<svg xmlns="http://www.w3.org/2000/svg" width="14" height="16" viewBox="0 0 14 16">
  <g id="user1" transform="translate(0 0)">
    <path id="Path_41" data-name="Path 41" d="M91.149,7.877A4.077,4.077,0,0,0,94.06,6.723a3.729,3.729,0,0,0,1.206-2.785A3.73,3.73,0,0,0,94.06,1.154a4.25,4.25,0,0,0-5.822,0,3.73,3.73,0,0,0-1.206,2.785,3.729,3.729,0,0,0,1.206,2.785A4.078,4.078,0,0,0,91.149,7.877Zm0,0" transform="translate(-84.252 0)" fill="#003663"/>
    <path id="Path_42" data-name="Path 42" d="M13.966,251.991a9.493,9.493,0,0,0-.136-1.033,7.97,7.97,0,0,0-.261-1.039,5.065,5.065,0,0,0-.438-.969,3.669,3.669,0,0,0-.661-.839,2.925,2.925,0,0,0-.949-.581,3.357,3.357,0,0,0-1.212-.214,1.248,1.248,0,0,0-.657.271c-.2.125-.427.27-.684.43a3.973,3.973,0,0,1-.885.38,3.524,3.524,0,0,1-2.166,0,3.963,3.963,0,0,1-.885-.38c-.255-.159-.485-.3-.685-.43a1.246,1.246,0,0,0-.657-.271,3.353,3.353,0,0,0-1.212.214,2.923,2.923,0,0,0-.949.581,3.669,3.669,0,0,0-.661.839,5.075,5.075,0,0,0-.438.969,7.988,7.988,0,0,0-.261,1.039,9.459,9.459,0,0,0-.136,1.034c-.022.313-.034.638-.034.966a2.679,2.679,0,0,0,.828,2.054,3.025,3.025,0,0,0,2.133.758h8.08a3.024,3.024,0,0,0,2.132-.758A2.678,2.678,0,0,0,14,252.957c0-.329-.012-.654-.034-.966Zm0,0" transform="translate(0 -239.769)" fill="#003663"/>
  </g>
</svg>
